<?xml version="1.0" encoding="utf-8"?>
<!-- Generator: Adobe Illustrator 15.0.0, SVG Export Plug-In . SVG Version: 6.00 Build 0)  -->
<!DOCTYPE svg PUBLIC "-//W3C//DTD SVG 1.1//EN" "http://www.w3.org/Graphics/SVG/1.1/DTD/svg11.dtd">
<svg version="1.1" id="Layer_1" xmlns="http://www.w3.org/2000/svg" xmlns:xlink="http://www.w3.org/1999/xlink" x="0px" y="0px"
	 width="420px" height="60px" viewBox="0 0 420 60" enable-background="new 0 0 420 60" xml:space="preserve">
<rect x="140" y="20" fill="#464646" width="20" height="20"/>
<path fill="#464646" d="M221,30c0,6.078-4.926,11-11,11s-11-4.922-11-11c0-6.074,4.926-11,11-11S221,23.926,221,30z"/>
<g>
	<path fill="#464646" d="M337,30.156v0.406v5.605c0,1.658-1.344,3-3,3h-10c-1.656,0-3-1.342-3-3v-10c0-1.657,1.344-3,3-3h6.344
		l3.191-3.17H324c-3.314,0-6,2.687-6,6v10c0,3.314,2.686,6,6,6h10c3.314,0,6-2.686,6-6v-8.809L337,30.156"/>
	<polygon fill="#464646" points="329.828,33.529 327,33.529 327,30.699 335.891,21.809 338.719,24.637 	"/>
	
		<rect x="338.699" y="17.828" transform="matrix(0.7071 0.7071 -0.7071 0.7071 113.8091 -235.1032)" fill="#464646" width="4" height="4"/>
</g>
<g>
	<path fill="#464646" d="M381,42h18V24h-18V42z M395,26h2v14h-2V26z M391,26h2v14h-2V26z M387,26h2v14h-2V26z M383,26h2v14h-2V26z"
		/>
	<path fill="#464646" d="M395,20v-2v-2h-10v2v2h-6v2h22v-2H395z M393,20h-6v-2h6V20z"/>
</g>
<g>
	<path fill="#464646" d="M18,36v6h6v-6H18z M22,40h-2v-2h2V40z"/>
	<path fill="#464646" d="M36,18v6h6v-6H36z M40,22h-2v-2h2V22z"/>
	<polygon fill="#464646" points="23.142,39.145 20.857,36.854 36.857,20.857 39.142,23.142 	"/>
</g>
<polygon fill="#464646" points="83.07,42 76,28.773 86.463,18 100,24.565 97.904,39.396 "/>
<path fill="#464646" d="M270,19c-4.971,0-9,4.029-9,9c0,4.971,5.001,12,9,14c4.001-2,9-9.029,9-14C279,23.029,274.971,19,270,19z
	 M270,31.5c-2.485,0-4.5-2.014-4.5-4.5c0-2.484,2.015-4.5,4.5-4.5s4.5,2.016,4.5,4.5C274.5,29.486,272.485,31.5,270,31.5z"/>
</svg>
