<?xml version="1.0" encoding="UTF-8" standalone="no"?>
<svg
   xmlns:dc="http://purl.org/dc/elements/1.1/"
   xmlns:cc="http://creativecommons.org/ns#"
   xmlns:rdf="http://www.w3.org/1999/02/22-rdf-syntax-ns#"
   xmlns:svg="http://www.w3.org/2000/svg"
   xmlns="http://www.w3.org/2000/svg"
   xmlns:xlink="http://www.w3.org/1999/xlink"
   xmlns:sodipodi="http://sodipodi.sourceforge.net/DTD/sodipodi-0.dtd"
   xmlns:inkscape="http://www.inkscape.org/namespaces/inkscape"
   width="172.49236mm"
   height="15.960755mm"
   viewBox="0 0 172.49236 15.960756"
   version="1.1"
   id="svg8"
   sodipodi:docname="spritesheet2.svg"
   inkscape:version="1.0.2 (e86c8708, 2021-01-15)">
  <defs
     id="defs2" />
  <sodipodi:namedview
     id="base"
     pagecolor="#ffffff"
     bordercolor="#666666"
     borderopacity="1.0"
     inkscape:pageopacity="0.0"
     inkscape:pageshadow="2"
     inkscape:zoom="1.1962965"
     inkscape:cx="341.59555"
     inkscape:cy="-71.374672"
     inkscape:document-units="mm"
     inkscape:current-layer="layer1"
     inkscape:document-rotation="0"
     showgrid="false"
     inkscape:window-width="1792"
     inkscape:window-height="1075"
     inkscape:window-x="0"
     inkscape:window-y="23"
     inkscape:window-maximized="1"
     fit-margin-top="4.5"
     fit-margin-bottom="4.5"
     fit-margin-left="4.5"
     fit-margin-right="4.5" />
  <metadata
     id="metadata5">
    <rdf:RDF>
      <cc:Work
         rdf:about="">
        <dc:format>image/svg+xml</dc:format>
        <dc:type
           rdf:resource="http://purl.org/dc/dcmitype/StillImage" />
        <dc:title></dc:title>
      </cc:Work>
    </rdf:RDF>
  </metadata>
  <g
     inkscape:label="Layer 1"
     inkscape:groupmode="layer"
     id="layer1"
     transform="translate(-248.12793,61.612203)">
    <g
       id="g1118">
      <g
         id="g54"
         transform="matrix(0.26458333,0,0,0.26458333,247.86543,-61.345536)">
        <g
           id="enabled"
           style="fill:#464646;fill-opacity:1">
          <g
             id="polyline"
             style="fill:#464646;fill-opacity:1">
            <path
               d="m 18,36 v 6 h 6 v -6 z m 4,4 h -2 v -2 h 2 z"
               id="path4229"
               inkscape:connector-curvature="0"
               style="fill:#464646;fill-opacity:1" />
            <path
               d="m 36,18 v 6 h 6 v -6 z m 4,4 h -2 v -2 h 2 z"
               id="path4231"
               inkscape:connector-curvature="0"
               style="fill:#464646;fill-opacity:1" />
            <path
               d="m 23.142,39.145 -2.285,-2.29 16,-15.998 2.285,2.285 z"
               id="path4233"
               inkscape:connector-curvature="0"
               style="fill:#464646;fill-opacity:1" />
          </g>
          <path
             id="polygon"
             d="M 100,24.565 97.904,39.395 83.07,42 76,28.773 86.463,18 Z"
             inkscape:connector-curvature="0"
             style="fill:#464646;fill-opacity:1" />
          <path
             id="rectangle"
             d="m 140,20 h 20 v 20 h -20 z"
             inkscape:connector-curvature="0"
             style="fill:#464646;fill-opacity:1" />
          <path
             id="circle"
             d="m 221,30 c 0,6.078 -4.926,11 -11,11 -6.074,0 -11,-4.922 -11,-11 0,-6.074 4.926,-11 11,-11 6.074,0 11,4.926 11,11 z"
             inkscape:connector-curvature="0"
             style="fill:#464646;fill-opacity:1" />
          <path
             id="marker"
             d="m 270,19 c -4.971,0 -9,4.029 -9,9 0,4.971 5.001,12 9,14 4.001,-2 9,-9.029 9,-14 0,-4.971 -4.029,-9 -9,-9 z m 0,12.5 c -2.484,0 -4.5,-2.014 -4.5,-4.5 0,-2.484 2.016,-4.5 4.5,-4.5 2.485,0 4.5,2.016 4.5,4.5 0,2.486 -2.015,4.5 -4.5,4.5 z"
             inkscape:connector-curvature="0"
             style="fill:#464646;fill-opacity:1" />
          <g
             id="edit"
             style="fill:#464646;fill-opacity:1">
            <path
               d="m 337,30.156 v 0.407 5.604 c 0,1.658 -1.344,3 -3,3 h -10 c -1.655,0 -3,-1.342 -3,-3 v -10 c 0,-1.657 1.345,-3 3,-3 h 6.345 l 3.19,-3.17 H 324 c -3.313,0 -6,2.687 -6,6 v 10 c 0,3.313 2.687,6 6,6 h 10 c 3.314,0 6,-2.687 6,-6 v -8.809 l -3,2.968"
               id="path4240"
               inkscape:connector-curvature="0"
               style="fill:#464646;fill-opacity:1" />
            <path
               d="m 338.72,24.637 -8.892,8.892 H 327 V 30.7 l 8.89,-8.89 z"
               id="path4242"
               inkscape:connector-curvature="0"
               style="fill:#464646;fill-opacity:1" />
            <path
               d="m 338.697,17.826 h 4 v 4 h -4 z"
               transform="rotate(-134.99,340.703,19.816999)"
               id="path4244"
               inkscape:connector-curvature="0"
               style="fill:#464646;fill-opacity:1" />
          </g>
          <g
             id="remove"
             style="fill:#464646;fill-opacity:1">
            <path
               d="m 381,42 h 18 V 24 h -18 z m 14,-16 h 2 v 14 h -2 z m -4,0 h 2 v 14 h -2 z m -4,0 h 2 v 14 h -2 z m -4,0 h 2 v 14 h -2 z"
               id="path4247"
               inkscape:connector-curvature="0"
               style="fill:#464646;fill-opacity:1" />
            <path
               d="m 395,20 v -4 h -10 v 4 h -6 v 2 h 22 v -2 z m -2,0 h -6 v -2 h 6 z"
               id="path4249"
               inkscape:connector-curvature="0"
               style="fill:#464646;fill-opacity:1" />
          </g>
        </g>
        <g
           id="disabled"
           transform="translate(120)"
           style="fill:#bbbbbb">
          <use
             xlink:href="#edit"
             id="edit-disabled"
             x="0"
             y="0"
             width="100%"
             height="100%" />
          <use
             xlink:href="#remove"
             id="remove-disabled"
             x="0"
             y="0"
             width="100%"
             height="100%" />
        </g>
        <path
           style="fill:none;stroke:#464646;stroke-width:2;stroke-miterlimit:4;stroke-dasharray:none;stroke-opacity:1"
           id="circle-3"
           d="m 581.65725,30 c 0,6.078 -4.926,11 -11,11 -6.074,0 -11,-4.922 -11,-11 0,-6.074 4.926,-11 11,-11 6.074,0 11,4.926 11,11 z"
           inkscape:connector-curvature="0" />
      </g>
      <path
         style="fill:#999999;fill-opacity:0;stroke:#464646;stroke-width:0.984158;stroke-linecap:round;stroke-miterlimit:4;stroke-dasharray:none;stroke-opacity:1"
         d="m 408.1818,-50.068503 c 2.93078,0.647496 10.32908,0.03734 4.48111,-3.165861 -5.62795,-3.082628 -0.0898,-3.075384 3.11526,-3.200495"
         id="path56" />
    </g>
  </g>
</svg>
